@startuml

skinparam componentStyle uml2

package "'Agendamento' Aggregate" <<Rectangle>> {
	class Agendamento <<(A,#fffab8) Aggregate Root>> {
		Date dataHora
		String notasAdicionais
		AgendamentoId id
		ClienteId clienteId
		ServicoId servicoId
		StatusAgendamento status
	}
	class AgendamentoId <<(V,DarkSeaGreen) Value Object>> {
		int agendamentoId
	}
	class ClienteId <<(V,DarkSeaGreen) Value Object>> {
		int clienteId
	}
	class StatusAgendamento <<(V,DarkSeaGreen) Value Object>> {
		String status
	}
}
Agendamento --> ClienteId : clienteId
Agendamento --> AgendamentoId : id
Agendamento --> StatusAgendamento : status


@enduml
